<?xml version="1.0" standalone="no"?>
<!DOCTYPE svg PUBLIC "-//W3C//DTD SVG 20010904//EN"
 "http://www.w3.org/TR/2001/REC-SVG-20010904/DTD/svg10.dtd">
<svg version="1.0" xmlns="http://www.w3.org/2000/svg"
 width="1000.000000pt" height="1000.000000pt" viewBox="0 0 1000.000000 1000.000000"
 preserveAspectRatio="xMidYMid meet">
<metadata>
Created by potrace 1.15, written by Peter Selinger 2001-2017
</metadata>
<g transform="translate(0.000000,1000.000000) scale(0.100000,-0.100000)"
fill="#000000" stroke="none">
<path d="M4575 9705 c-928 -85 -1803 -436 -2527 -1017 -901 -722 -1507 -1747
-1702 -2878 -53 -307 -61 -409 -61 -810 0 -401 8 -503 61 -810 266 -1543 1291
-2861 2728 -3504 440 -197 881 -317 1407 -383 115 -14 219 -18 519 -18 401 0
495 7 809 61 1129 193 2153 798 2875 1699 568 708 899 1504 1013 2435 26 208
26 832 0 1040 -64 520 -187 969 -389 1420 -424 947 -1176 1749 -2091 2231
-506 267 -982 422 -1566 509 -267 40 -782 52 -1076 25z m755 -725 c643 -67
1145 -224 1680 -528 448 -255 915 -682 1241 -1135 180 -252 381 -622 474 -878
142 -387 215 -705 255 -1109 12 -123 12 -537 0 -660 -40 -404 -114 -723 -254
-1108 -31 -82 -136 -313 -192 -419 -596 -1132 -1699 -1913 -2954 -2092 -238
-34 -341 -41 -580 -41 -716 0 -1372 176 -2010 538 -448 255 -915 682 -1241
1135 -180 252 -381 623 -474 878 -142 389 -214 703 -255 1109 -12 123 -12 537
0 660 41 406 113 720 255 1109 36 98 150 344 214 461 196 358 397 626 686 915
365 366 721 614 1179 822 408 185 805 290 1301 342 114 12 562 12 675 1z"/>
<path d="M4595 7135 l-400 -1125 -1214 -2 -1215 -3 802 -652 c441 -359 807
-653 812 -653 6 0 369 262 808 582 438 320 804 582 812 582 8 0 374 -262 812
-582 439 -320 802 -582 808 -582 5 0 371 294 812 652 l802 653 -1215 3 -1214
2 -400 1125 c-220 619 -402 1125 -405 1125 -3 0 -185 -506 -405 -1125z"/>
<path d="M4938 5347 c-29 -24 -321 -247 -648 -496 -327 -250 -601 -459 -608
-465 -11 -11 -276 -865 -270 -871 2 -2 359 269 793 601 435 332 792 604 795
604 3 0 361 -272 795 -604 435 -332 791 -603 793 -601 6 6 -259 860 -270 871
-7 6 -281 215 -608 465 -327 249 -619 472 -648 496 -30 24 -58 43 -62 43 -4 0
-32 -19 -62 -43z"/>
<path d="M4115 3519 c-484 -369 -890 -681 -901 -692 -16 -16 -60 -147 -151
-449 -71 -235 -125 -424 -119 -421 6 4 468 356 1026 782 558 426 1022 775
1030 775 8 0 472 -349 1030 -775 558 -426 1020 -778 1026 -782 6 -3 -48 186
-119 421 -91 302 -135 433 -151 449 -26 26 -1764 1353 -1780 1359 -7 3 -408
-298 -891 -667z"/>
</g>
</svg>
